# xmcd
#
# Track frame offsets: 
#        150
#        15725
#        38722
#        63331
#        81696
#        100884
#        116536
#        129668
#        159361
#        173900
#        186335
#        206526
#        233686
#        247574
#        265022
#        286061
#        301630
#        314278
#        332761
#
# Disc length: 4614 seconds
#
# Revision: 0
# Processed by: cddbd v1.5.2PL0 Copyright (c) Steve Scherf et al.
# Submitted via: ExactAudioCopy v0.95a5
#
DISCID=f6120413
DTITLE=Natural Blues - Roots and Fruits
DYEAR=2007
DGENRE=Blues
TTITLE0=Stack O´Lee Blues
TTITLE1=In my time of dying
TTITLE2=Walkin´ Blues
TTITLE3=Keep your hands off her
TTITLE4=Shout baby shout
TTITLE5=Dark as a dungeon
TTITLE6=My babe
TTITLE7=(Ghost) Riders in the sky: A cowboy legend
TTITLE8=Ride and Roll
TTITLE9=Sea cruise
TTITLE10=The end of the world
TTITLE11=Goin up to the country, paint my mailbox blue
TTITLE12=Rivers of babylon
TTITLE13=I´m on fire
TTITLE14=Rockin´ in the free world
TTITLE15=Who where you thinkin´ of (last night)?
TTITLE16=Lovin´ my baby´s eyes
TTITLE17=John Law burned down the liquor sto´
TTITLE18=Long way home
EXTD=
EXTT0=
EXTT1=
EXTT2=
EXTT3=
EXTT4=
EXTT5=
EXTT6=
EXTT7=
EXTT8=
EXTT9=
EXTT10=
EXTT11=
EXTT12=
EXTT13=
EXTT14=
EXTT15=
EXTT16=
EXTT17=
EXTT18=
PLAYORDER=
